<svg width="275" height="100" viewBox="0 0 275 100" fill="none" xmlns="http://www.w3.org/2000/svg">
<g clip-path="url(#clip0_1_18747)">
<path d="M124.993 49.9986C124.993 36.7382 119.725 24.0208 110.349 14.6442C100.972 5.2677 88.255 1.7389e-06 74.9946 0C61.7342 -1.73889e-06 49.0169 5.2677 39.6404 14.6442C30.2638 24.0208 24.9961 36.7382 24.9961 49.9986H40.6208C45.7984 49.9986 49.8363 45.6597 51.7327 40.8418C52.9778 37.6787 54.8671 34.7718 57.3173 32.3213C62.0056 27.6331 68.3644 24.9993 74.9946 24.9993C81.6248 24.9993 87.9836 27.6331 92.6719 32.3213C97.3602 37.0096 99.9937 43.3684 99.9937 49.9986H124.993Z" fill="url(#paint0_linear_1_18747)"/>
<path d="M96.1907 69.1352C98.7034 63.069 99.9968 56.5675 99.9968 50.0017H124.993C124.993 77.6151 102.608 100 74.9948 100C70.6704 100 66.474 99.4511 62.4722 98.4191C64.7364 97.8357 66.9619 97.0928 69.1317 96.1942C75.1979 93.6815 80.7096 89.9988 85.3525 85.356C89.9953 80.7131 93.6783 75.2013 96.1907 69.1352Z" fill="#4392F9"/>
<path d="M-6.10352e-05 49.9954C-6.19745e-05 56.5615 1.29319 63.0631 3.80584 69.1292C6.31852 75.1954 10.0014 80.7072 14.6442 85.35C19.2869 89.9925 24.7988 93.6755 30.8648 96.1882C36.9309 98.7009 43.4325 99.994 49.9985 99.994C56.5643 99.994 63.0658 98.7009 69.132 96.1882C75.1981 93.6755 80.7099 89.9925 85.3528 85.35C89.9956 80.7072 93.6783 75.1954 96.191 69.1292C98.7037 63.0631 99.9971 56.5615 99.9971 49.9954H84.3723C79.1948 49.9954 75.1569 54.3343 73.2604 59.1519C73.2066 59.2892 73.1512 59.4258 73.0948 59.5625C71.8384 62.5954 69.9971 65.3515 67.6755 67.6727C65.3542 69.994 62.5982 71.8356 59.5653 73.092C56.5323 74.3483 53.2816 74.9949 49.9985 74.9949C46.7155 74.9949 43.4647 74.3483 40.4318 73.092C37.3986 71.8356 34.6428 69.994 32.3213 67.6727C29.9999 65.3515 28.1585 62.5954 26.9022 59.5625C25.6458 56.5293 24.9992 53.2785 24.9992 49.9954H-6.10352e-05Z" fill="url(#paint1_linear_1_18747)"/>
<path d="M0.00465393 49.9986C0.00465393 22.385 22.3897 0 50.003 0C54.3264 0 58.5216 0.548716 62.523 1.58035C53.9371 3.79217 46.0167 8.26832 39.6405 14.6443C30.264 24.0207 24.9963 36.7382 24.9963 49.9986H0.00465393Z" fill="#F83758"/>
<path d="M147.138 64.36C145.911 64.36 144.718 64.2 143.558 63.88C142.398 63.56 141.151 63.06 139.818 62.38L138.438 64H137.198L136.418 53.86L138.078 53.6C138.931 56.5733 140.058 58.7267 141.458 60.06C142.871 61.3933 144.744 62.06 147.078 62.06C148.744 62.06 150.071 61.66 151.058 60.86C152.058 60.06 152.558 58.96 152.558 57.56C152.558 56.72 152.204 55.94 151.498 55.22C150.804 54.4867 149.604 53.7067 147.898 52.88L144.678 51.28C142.064 49.9867 140.144 48.5533 138.918 46.98C137.691 45.4067 137.078 43.5733 137.078 41.48C137.078 39.8667 137.524 38.4333 138.418 37.18C139.311 35.9133 140.518 34.92 142.038 34.2C143.571 33.48 145.304 33.12 147.238 33.12C149.944 33.12 152.264 33.94 154.198 35.58L155.138 33.48H156.458L156.838 42.24H155.098C154.444 39.9867 153.484 38.2933 152.218 37.16C150.964 36.0267 149.371 35.46 147.438 35.46C146.078 35.46 145.018 35.7933 144.258 36.46C143.498 37.1267 143.118 38.0467 143.118 39.22C143.118 40.1267 143.458 40.94 144.138 41.66C144.818 42.3667 145.998 43.1467 147.678 44L150.838 45.62C153.344 46.9 155.144 48.3067 156.238 49.84C157.344 51.3733 157.898 53.2133 157.898 55.36C157.898 57.0667 157.424 58.6 156.478 59.96C155.531 61.32 154.244 62.3933 152.618 63.18C150.991 63.9667 149.164 64.36 147.138 64.36ZM169.284 64.42C167.23 64.42 165.77 63.9733 164.904 63.08C164.037 62.1867 163.604 60.7533 163.604 58.78V45H160.804L160.564 43.78L168.544 37.7L169.764 37.9V43.02H175.884L175.304 45H169.764V58.38C169.764 60.5 170.59 61.56 172.244 61.56C172.71 61.56 173.15 61.48 173.564 61.32C173.977 61.16 174.357 60.8733 174.704 60.46L175.624 61.74C174.93 62.62 174.03 63.2867 172.924 63.74C171.817 64.1933 170.604 64.42 169.284 64.42ZM181.457 74.3C180.164 74.3 179.057 74.0133 178.137 73.44C177.231 72.8667 176.777 72.0133 176.777 70.88C176.777 70.12 177.031 69.5133 177.537 69.06C178.044 68.6067 178.644 68.38 179.337 68.38C179.924 68.38 180.444 68.5467 180.897 68.88C181.364 69.2133 181.697 69.72 181.897 70.4C182.084 71.0267 182.264 71.4333 182.437 71.62C182.611 71.82 182.877 71.92 183.237 71.92C183.704 71.92 184.164 71.6867 184.617 71.22C185.071 70.7533 185.444 70.1133 185.737 69.3L187.297 65.1L178.857 46C178.631 45.4933 178.291 45.1267 177.837 44.9C177.384 44.66 176.664 44.4933 175.677 44.4V43.02H188.597V44.4C187.757 44.4667 187.111 44.5733 186.657 44.72C186.217 44.8667 185.944 45.0733 185.837 45.34C185.731 45.6067 185.764 45.9533 185.937 46.38L190.537 57.22H190.737L194.717 47.54C195.171 46.5133 195.171 45.7533 194.717 45.26C194.277 44.7667 193.344 44.48 191.917 44.4V43.02H201.437V44.4C200.464 44.5867 199.717 44.7933 199.197 45.02C198.677 45.2467 198.271 45.56 197.977 45.96C197.684 46.3467 197.391 46.8867 197.097 47.58L187.977 69.58C187.604 70.4467 187.204 71.18 186.777 71.78C186.351 72.38 185.884 72.8733 185.377 73.26C184.404 73.9533 183.097 74.3 181.457 74.3ZM200.993 64V62.6L204.393 61.82V35.06L200.993 34V33.04L209.653 31.14H210.493V61.82L213.673 62.6V64H200.993ZM215.375 64V62.6L218.755 61.82V46.54L215.375 45.46V44.52L224.055 42.62H224.895V61.82L228.055 62.6V64H215.375ZM221.755 39.66C220.661 39.66 219.821 39.32 219.235 38.64C218.648 37.96 218.355 37.22 218.355 36.42C218.355 35.5533 218.655 34.7867 219.255 34.12C219.868 33.4533 220.701 33.12 221.755 33.12C222.835 33.12 223.688 33.4533 224.315 34.12C224.955 34.7867 225.275 35.5533 225.275 36.42C225.275 37.22 224.975 37.96 224.375 38.64C223.788 39.32 222.915 39.66 221.755 39.66ZM237.073 64.42C236.059 64.42 234.986 64.34 233.853 64.18C232.719 64.0333 231.746 63.8267 230.933 63.56L230.673 57.12H232.373C232.493 58.84 232.939 60.16 233.713 61.08C234.499 61.9867 235.579 62.44 236.953 62.44C237.979 62.44 238.799 62.18 239.413 61.66C240.026 61.1267 240.333 60.4333 240.333 59.58C240.333 58.9133 240.093 58.32 239.613 57.8C239.146 57.2667 238.346 56.7 237.213 56.1L235.293 55.12C233.719 54.2933 232.559 53.3733 231.813 52.36C231.079 51.3467 230.713 50.14 230.713 48.74C230.713 46.7267 231.446 45.2067 232.913 44.18C234.393 43.14 236.566 42.62 239.433 42.62C240.446 42.62 241.419 42.6867 242.353 42.82C243.299 42.94 244.059 43.1067 244.633 43.32V48.8H243.113C242.726 46 241.406 44.6 239.153 44.6C238.246 44.6 237.513 44.82 236.953 45.26C236.406 45.7 236.133 46.2733 236.133 46.98C236.133 47.6067 236.379 48.1733 236.873 48.68C237.366 49.1733 238.219 49.7133 239.433 50.3L241.333 51.28C242.813 52.04 243.906 52.9333 244.613 53.96C245.319 54.9733 245.673 56.2 245.673 57.64C245.673 59.7733 244.919 61.44 243.413 62.64C241.906 63.8267 239.793 64.42 237.073 64.42ZM247.987 64V62.6L250.947 61.82V35.1L247.967 34V33.08L256.247 31.14H257.107V61.82L259.867 62.6V64H247.987ZM262.047 64V62.6L264.827 61.82V50.98C264.827 49.3533 264.501 48.1533 263.847 47.38C263.194 46.5933 262.214 46.2 260.907 46.2C260.094 46.2 259.334 46.36 258.627 46.68C257.921 47 257.254 47.44 256.627 48V45.5C257.654 44.7 258.867 44.02 260.267 43.46C261.681 42.9 263.127 42.62 264.607 42.62C268.847 42.62 270.967 44.94 270.967 49.58V61.82L273.947 62.6V64H262.047Z" fill="#F83758"/>
</g>
<defs>
<linearGradient id="paint0_linear_1_18747" x1="124.993" y1="24.9993" x2="24.9961" y2="24.9993" gradientUnits="userSpaceOnUse">
<stop stop-color="#CFE2FC"/>
<stop offset="1" stop-color="#4392F9"/>
</linearGradient>
<linearGradient id="paint1_linear_1_18747" x1="-5.77569e-05" y1="74.9949" x2="99.9971" y2="74.9949" gradientUnits="userSpaceOnUse">
<stop stop-color="#F8BCC6"/>
<stop offset="1" stop-color="#F83758"/>
</linearGradient>
<clipPath id="clip0_1_18747">
<rect width="274.993" height="100" fill="white"/>
</clipPath>
</defs>
</svg>
